<?xml version="1.0" encoding="UTF-8" standalone="no"?>
<svg
   xmlns:dc="http://purl.org/dc/elements/1.1/"
   xmlns:cc="http://creativecommons.org/ns#"
   xmlns:rdf="http://www.w3.org/1999/02/22-rdf-syntax-ns#"
   xmlns:svg="http://www.w3.org/2000/svg"
   xmlns="http://www.w3.org/2000/svg"
   xmlns:sodipodi="http://sodipodi.sourceforge.net/DTD/sodipodi-0.dtd"
   xmlns:inkscape="http://www.inkscape.org/namespaces/inkscape"
   sodipodi:docname="drawing.svg"
   inkscape:version="1.0 (4035a4fb49, 2020-05-01)"
   inkscape:export-ydpi="69.16935"
   inkscape:export-xdpi="69.16935"
   inkscape:export-filename="E:\Godot 4.1\Projects\1-bit-jam-team-7\gfx\base.png"
   id="svg8"
   version="1.1"
   viewBox="0 0 210 297"
   height="297mm"
   width="210mm">
  <defs
     id="defs2" />
  <sodipodi:namedview
     inkscape:window-maximized="1"
     inkscape:window-y="-8"
     inkscape:window-x="-8"
     inkscape:window-height="1017"
     inkscape:window-width="1920"
     inkscape:guide-bbox="true"
     showguides="true"
     showgrid="false"
     inkscape:document-rotation="0"
     inkscape:current-layer="g914"
     inkscape:document-units="mm"
     inkscape:cy="-169.8355"
     inkscape:cx="286.55517"
     inkscape:zoom="1.4"
     inkscape:pageshadow="2"
     inkscape:pageopacity="0.0"
     borderopacity="1.0"
     bordercolor="#666666"
     pagecolor="#ffffff"
     id="base">
    <sodipodi:guide
       id="guide839"
       orientation="1,0"
       position="95.615674,380.68877" />
  </sodipodi:namedview>
  <metadata
     id="metadata5">
    <rdf:RDF>
      <cc:Work
         rdf:about="">
        <dc:format>image/svg+xml</dc:format>
        <dc:type
           rdf:resource="http://purl.org/dc/dcmitype/StillImage" />
        <dc:title></dc:title>
      </cc:Work>
    </rdf:RDF>
  </metadata>
  <g
     id="layer1"
     inkscape:groupmode="layer"
     inkscape:label="Layer 1">
    <g
       id="g914">
      <path
         sodipodi:nodetypes="cccc"
         id="path922"
         d="m 87.238443,-54.639914 8.365907,-2.889852 8.53472,2.6894 -0.038,1.217596"
         style="fill:none;fill-rule:evenodd;stroke:#000000;stroke-width:0.265;stroke-linecap:butt;stroke-linejoin:round;stroke-opacity:1;stroke-miterlimit:4;stroke-dasharray:none;paint-order:fill markers stroke" />
      <g
         id="g898">
        <path
           sodipodi:nodetypes="ccccccccccccccccccccc"
           id="path895"
           d="m 84.913763,-49.8964 2.39341,-3.660513 3.235815,-1.211143 -1.326429,-16.564196 -2.896247,-1.910079 -0.157958,-2.163916 2.069997,-2.636454 -0.08741,-3.032408 7.470733,-8.562654 6.886706,8.566758 -0.0681,3.00645 2.03633,2.610707 -0.18222,2.164252 -2.53244,1.828455 -1.25321,16.664837 3.5984,1.173534 2.20785,3.72637 0.58351,3.922141 -11.288102,3.89313 -12.01824,-4.009954 z"
           style="fill:#ffffff;fill-opacity:1;fill-rule:evenodd;stroke:none;stroke-width:0.264583px;stroke-linecap:butt;stroke-linejoin:miter;stroke-opacity:1" />
      </g>
      <path
         style="fill:none;fill-rule:evenodd;stroke:#000000;stroke-width:0.163553px;stroke-linecap:butt;stroke-linejoin:miter;stroke-opacity:1"
         d="m 90.365814,-54.720809 -3.05864,1.163895 -2.393411,3.660513 10.690588,3.123505 10.704589,-3.123505 -2.20785,-3.72637 -3.46892,-1.152653 -5.027819,-0.571642 -5.238537,0.62626 z"
         id="path833"
         sodipodi:nodetypes="cccccccccc" />
      <path
         style="fill:#ffffff;fill-opacity:1;fill-rule:evenodd;stroke:#000000;stroke-width:0.264583px;stroke-linecap:butt;stroke-linejoin:miter;stroke-opacity:1"
         d="m 89.251994,-71.456275 c 3.931503,1.292873 8.86069,1.596891 12.503926,-0.0049 l -1.44802,20.100961 c -1.341876,2.107191 -8.390306,2.029903 -9.544392,0.0584 z"
         id="path835"
         sodipodi:nodetypes="ccccc" />
      <path
         style="fill:none;fill-rule:evenodd;stroke:#000000;stroke-width:0.264583px;stroke-linecap:butt;stroke-linejoin:miter;stroke-opacity:1"
         d="m 86.320312,-73.242331 -0.157959,-2.163915 c 3.318729,3.718179 15.299067,3.568558 18.308227,-0.0476 l -0.18222,2.16425 c -2.90958,3.400265 -13.38893,3.832556 -17.968048,0.04726 z"
         id="path837"
         sodipodi:nodetypes="cccccc" />
      <path
         style="fill:none;fill-rule:evenodd;stroke:#000000;stroke-width:0.264583px;stroke-linecap:butt;stroke-linejoin:miter;stroke-opacity:1"
         d="m 102.2146,-75.546585 c -4.042728,2.257387 -11.545362,1.347716 -13.778986,0.216266"
         id="path841"
         sodipodi:nodetypes="cc" />
      <path
         style="fill:#000000;fill-opacity:1;fill-rule:evenodd;stroke:#000000;stroke-width:0.264583px;stroke-linecap:butt;stroke-linejoin:miter;stroke-opacity:1"
         d="m 92.161936,-79.4175 0.115852,4.941908 0.531559,0.04176 0.07922,-4.786329 z"
         id="path843"
         sodipodi:nodetypes="ccccc" />
      <path
         sodipodi:nodetypes="ccccc"
         id="path843-8"
         d="m 97.883589,-79.166283 0.08472,4.62735 0.539912,-0.01671 0.120147,-4.862993 z"
         style="fill:#020202;fill-opacity:1;fill-rule:evenodd;stroke:#000000;stroke-width:0.264583px;stroke-linecap:butt;stroke-linejoin:miter;stroke-opacity:1" />
      <path
         style="fill:none;fill-rule:evenodd;stroke:#000000;stroke-width:0.264583px;stroke-linecap:butt;stroke-linejoin:miter;stroke-opacity:1"
         d="m 86.162353,-75.406245 c -1.093878,-5.248424 20.245297,-5.028967 18.308227,-0.0476"
         id="path891"
         sodipodi:nodetypes="cc" />
      <path
         sodipodi:nodetypes="ccccc"
         id="path843-0"
         d="m 88.142856,-80.989495 0.120981,5.21605 0.171816,0.443126 -0.06776,-5.458567 z"
         style="fill:#000000;fill-opacity:1;fill-rule:evenodd;stroke:#000000;stroke-width:0.264583px;stroke-linecap:butt;stroke-linejoin:round;stroke-opacity:1" />
      <path
         sodipodi:nodetypes="ccccc"
         id="path843-1"
         d="m 102.21226,-80.858571 0.002,5.311986 0.31988,-0.179362 -0.0321,-5.345058 z"
         style="fill:#000000;fill-opacity:1;fill-rule:evenodd;stroke:#000000;stroke-width:0.265;stroke-linecap:butt;stroke-linejoin:round;stroke-miterlimit:4;stroke-dasharray:none;stroke-opacity:1" />
      <path
         style="fill:none;fill-rule:evenodd;stroke:#000000;stroke-width:0.163553px;stroke-linecap:butt;stroke-linejoin:miter;stroke-opacity:1"
         d="m 84.913763,-49.896401 -0.996924,3.852564 11.687512,3.962706 11.288099,-3.893128 -0.58351,-3.922142 -10.704589,3.123505 z"
         id="path887"
         sodipodi:nodetypes="ccccccc" />
      <path
         sodipodi:nodetypes="cccc"
         id="path953"
         d="m 95.615671,-89.637763 -7.472817,8.648269 c 3.934465,1.878717 8.070582,3.306372 14.359526,-0.08151 z"
         style="fill:#ffffff;fill-opacity:1;fill-rule:evenodd;stroke:none;stroke-width:0.264583px;stroke-linecap:butt;stroke-linejoin:miter;stroke-opacity:1" />
      <path
         style="fill:none;fill-rule:evenodd;stroke:#000000;stroke-width:0.264583px;stroke-linecap:butt;stroke-linejoin:round;stroke-opacity:1"
         d="m 88.144944,-81.075109 7.47073,-8.562654 6.886826,8.566758 c -4.476336,2.433217 -9.393883,2.690042 -14.357556,-0.0041 z"
         id="path889"
         sodipodi:nodetypes="ccccc" />
      <path
         style="fill:none;fill-rule:evenodd;stroke:#000000;stroke-width:0.264583px;stroke-linecap:butt;stroke-linejoin:miter;stroke-opacity:1"
         d="m 88.435653,-75.330319 c -2.574158,-1.478714 3.646606,-3.074859 7.193669,-2.99192 4.360314,0.101953 8.707618,1.299657 6.905198,2.596292"
         id="path893"
         sodipodi:nodetypes="csc" />
      <path
         sodipodi:nodetypes="cccc"
         id="path918"
         d="m 97.517856,-49.95345 v -2.254511 l 1.464657,-0.377976 -0.09449,2.220611"
         style="fill:none;fill-rule:evenodd;stroke:#000000;stroke-width:0.264583px;stroke-linecap:butt;stroke-linejoin:miter;stroke-opacity:1" />
      <path
         sodipodi:nodetypes="cccc"
         id="path920"
         d="m 84.913763,-49.8964 0.02783,-1.669913 2.296846,-3.073601 0.06873,1.083"
         style="fill:none;fill-rule:evenodd;stroke:#000000;stroke-width:0.264583px;stroke-linecap:butt;stroke-linejoin:round;stroke-opacity:1" />
      <path
         sodipodi:nodetypes="ccc"
         id="path924"
         d="m 104.13907,-54.840366 2.2342,3.658252 -0.0643,1.285714"
         style="fill:none;fill-rule:evenodd;stroke:#000000;stroke-width:0.264583px;stroke-linecap:butt;stroke-linejoin:miter;stroke-opacity:1" />
      <path
         id="path926"
         d="m 84.941597,-51.566312 10.662753,3.232608 v 1.560808"
         style="fill:none;fill-rule:evenodd;stroke:#000000;stroke-width:0.264583px;stroke-linecap:butt;stroke-linejoin:miter;stroke-opacity:1" />
      <path
         sodipodi:nodetypes="cccccc"
         id="path928"
         d="m 95.60435,-48.333704 7.30565,-1.92062 0.003,1.388975 m 1.67043,-0.392551 -0.0309,-1.423084 1.82077,-0.501129"
         style="fill:none;fill-rule:evenodd;stroke:#000000;stroke-width:0.264583px;stroke-linecap:butt;stroke-linejoin:miter;stroke-opacity:1" />
      <path
         style="fill:#ffffff;fill-opacity:1;fill-rule:evenodd;stroke:#000000;stroke-width:0.264583px;stroke-linecap:butt;stroke-linejoin:round;stroke-opacity:1"
         d="m 104.58339,-49.2579 -1.67043,0.392551 v 0.567948 l -0.64007,0.20433 0.022,0.547364 -0.65982,0.183748 0.0167,0.668174 -0.61806,0.200452 0.0418,0.643117 -0.67653,0.250567 0.0692,0.636604 -0.745713,0.282135 -0.004,0.71679 1.274486,0.655884"
         id="path930-3"
         sodipodi:nodetypes="cccccccccccccc" />
      <path
         sodipodi:nodetypes="cccccccccccccccc"
         id="path930"
         d="m 104.58339,-49.2579 1.23612,0.676527 -1.67043,0.392551 v 0.567948 l -0.64007,0.20433 0.022,0.547364 -0.65982,0.183748 0.0167,0.668174 -0.61806,0.200452 0.0418,0.643117 -0.67653,0.250567 0.0692,0.636604 -0.74571,0.282135 0.0344,0.696147 4.85995,-1.598181 -0.0334,-3.674956"
         style="fill:#ffffff;fill-opacity:1;fill-rule:evenodd;stroke:#000000;stroke-width:0.264583px;stroke-linecap:butt;stroke-linejoin:round;stroke-opacity:1" />
      <path
         sodipodi:nodetypes="ccccc"
         id="path949"
         d="m 105.81951,-48.581373 0.0698,-1.24769 -1.58691,0.384202 -4.17956,5.003131 0.0294,1.671363"
         style="fill:none;fill-rule:evenodd;stroke:#000000;stroke-width:0.264583px;stroke-linecap:butt;stroke-linejoin:round;stroke-opacity:1" />
      <path
         sodipodi:nodetypes="cccc"
         id="path951"
         d="m 105.81954,-48.581373 0.0698,-1.24769 -1.32008,-0.851921 h -0.0167"
         style="fill:none;fill-rule:evenodd;stroke:#000000;stroke-width:0.264583px;stroke-linecap:butt;stroke-linejoin:miter;stroke-opacity:1" />
      <path
         inkscape:export-ydpi="78.319572"
         inkscape:export-xdpi="78.319572"
         d="m 61.50219,-48.426929 a 16.215614,8.0166874 0 0 1 -16.214907,8.016687 16.215614,8.0166874 0 0 1 -16.216322,-8.015988 16.215614,8.0166874 0 0 1 16.213492,-8.017387 16.215614,8.0166874 0 0 1 16.217736,8.015289 l -16.215614,0.0014 z"
         sodipodi:arc-type="slice"
         sodipodi:end="6.2830108"
         sodipodi:start="0"
         sodipodi:ry="8.0166874"
         sodipodi:rx="16.215614"
         sodipodi:cy="-48.426929"
         sodipodi:cx="45.286575"
         sodipodi:type="arc"
         id="path957"
         style="fill:#ffffff;fill-opacity:1;stroke:none;stroke-width:0.138127;stroke-linecap:square;stroke-linejoin:round;stroke-miterlimit:4;stroke-dasharray:none;stroke-opacity:1;paint-order:fill markers stroke" />
    </g>
  </g>
</svg>
